<?xml version="1.0" encoding="utf-8"?>
<svg xmlns="http://www.w3.org/2000/svg" xmlns:xlink="http://www.w3.org/1999/xlink" style="margin: auto; background: rgba(255, 255, 255, 0); display: block; shape-rendering: auto;" width="200px" height="200px" viewBox="0 0 100 100" preserveAspectRatio="xMidYMid">
<g transform="rotate(0 50 50)">
  <rect x="48.5" y="27" rx="0.6" ry="0.6" width="3" height="10" fill="#3ea4d6">
    <animate attributeName="opacity" values="1;0" keyTimes="0;1" dur="1.9607843137254901s" begin="-1.8300653594771241s" repeatCount="indefinite"></animate>
  </rect>
</g><g transform="rotate(24 50 50)">
  <rect x="48.5" y="27" rx="0.6" ry="0.6" width="3" height="10" fill="#3ea4d6">
    <animate attributeName="opacity" values="1;0" keyTimes="0;1" dur="1.9607843137254901s" begin="-1.6993464052287581s" repeatCount="indefinite"></animate>
  </rect>
</g><g transform="rotate(48 50 50)">
  <rect x="48.5" y="27" rx="0.6" ry="0.6" width="3" height="10" fill="#3ea4d6">
    <animate attributeName="opacity" values="1;0" keyTimes="0;1" dur="1.9607843137254901s" begin="-1.5686274509803921s" repeatCount="indefinite"></animate>
  </rect>
</g><g transform="rotate(72 50 50)">
  <rect x="48.5" y="27" rx="0.6" ry="0.6" width="3" height="10" fill="#3ea4d6">
    <animate attributeName="opacity" values="1;0" keyTimes="0;1" dur="1.9607843137254901s" begin="-1.4379084967320261s" repeatCount="indefinite"></animate>
  </rect>
</g><g transform="rotate(96 50 50)">
  <rect x="48.5" y="27" rx="0.6" ry="0.6" width="3" height="10" fill="#3ea4d6">
    <animate attributeName="opacity" values="1;0" keyTimes="0;1" dur="1.9607843137254901s" begin="-1.3071895424836601s" repeatCount="indefinite"></animate>
  </rect>
</g><g transform="rotate(120 50 50)">
  <rect x="48.5" y="27" rx="0.6" ry="0.6" width="3" height="10" fill="#3ea4d6">
    <animate attributeName="opacity" values="1;0" keyTimes="0;1" dur="1.9607843137254901s" begin="-1.1764705882352942s" repeatCount="indefinite"></animate>
  </rect>
</g><g transform="rotate(144 50 50)">
  <rect x="48.5" y="27" rx="0.6" ry="0.6" width="3" height="10" fill="#3ea4d6">
    <animate attributeName="opacity" values="1;0" keyTimes="0;1" dur="1.9607843137254901s" begin="-1.0457516339869282s" repeatCount="indefinite"></animate>
  </rect>
</g><g transform="rotate(168 50 50)">
  <rect x="48.5" y="27" rx="0.6" ry="0.6" width="3" height="10" fill="#3ea4d6">
    <animate attributeName="opacity" values="1;0" keyTimes="0;1" dur="1.9607843137254901s" begin="-0.9150326797385621s" repeatCount="indefinite"></animate>
  </rect>
</g><g transform="rotate(192 50 50)">
  <rect x="48.5" y="27" rx="0.6" ry="0.6" width="3" height="10" fill="#3ea4d6">
    <animate attributeName="opacity" values="1;0" keyTimes="0;1" dur="1.9607843137254901s" begin="-0.7843137254901961s" repeatCount="indefinite"></animate>
  </rect>
</g><g transform="rotate(216 50 50)">
  <rect x="48.5" y="27" rx="0.6" ry="0.6" width="3" height="10" fill="#3ea4d6">
    <animate attributeName="opacity" values="1;0" keyTimes="0;1" dur="1.9607843137254901s" begin="-0.6535947712418301s" repeatCount="indefinite"></animate>
  </rect>
</g><g transform="rotate(240 50 50)">
  <rect x="48.5" y="27" rx="0.6" ry="0.6" width="3" height="10" fill="#3ea4d6">
    <animate attributeName="opacity" values="1;0" keyTimes="0;1" dur="1.9607843137254901s" begin="-0.5228758169934641s" repeatCount="indefinite"></animate>
  </rect>
</g><g transform="rotate(264 50 50)">
  <rect x="48.5" y="27" rx="0.6" ry="0.6" width="3" height="10" fill="#3ea4d6">
    <animate attributeName="opacity" values="1;0" keyTimes="0;1" dur="1.9607843137254901s" begin="-0.39215686274509803s" repeatCount="indefinite"></animate>
  </rect>
</g><g transform="rotate(288 50 50)">
  <rect x="48.5" y="27" rx="0.6" ry="0.6" width="3" height="10" fill="#3ea4d6">
    <animate attributeName="opacity" values="1;0" keyTimes="0;1" dur="1.9607843137254901s" begin="-0.26143790849673204s" repeatCount="indefinite"></animate>
  </rect>
</g><g transform="rotate(312 50 50)">
  <rect x="48.5" y="27" rx="0.6" ry="0.6" width="3" height="10" fill="#3ea4d6">
    <animate attributeName="opacity" values="1;0" keyTimes="0;1" dur="1.9607843137254901s" begin="-0.13071895424836602s" repeatCount="indefinite"></animate>
  </rect>
</g><g transform="rotate(336 50 50)">
  <rect x="48.5" y="27" rx="0.6" ry="0.6" width="3" height="10" fill="#3ea4d6">
    <animate attributeName="opacity" values="1;0" keyTimes="0;1" dur="1.9607843137254901s" begin="0s" repeatCount="indefinite"></animate>
  </rect>
</g>
<!-- [ldio] generated by https://loading.io/ --></svg>