<?xml version="1.0" encoding="UTF-8" standalone="no" ?>
<!DOCTYPE svg PUBLIC "-//W3C//DTD SVG 1.1//EN" "http://www.w3.org/Graphics/SVG/1.1/DTD/svg11.dtd">
<svg xmlns="http://www.w3.org/2000/svg" xmlns:xlink="http://www.w3.org/1999/xlink" version="1.1" width="320" height="320" viewBox="0 0 640 640" xml:space="preserve">
<desc>Created with Fabric.js 4.6.0</desc>
<defs>
</defs>
<g transform="matrix(1 0 0 3.18 320 321.46)" id="1d5K-PBZ701jv3PGNE5N8"  >
<linearGradient id="SVGID_1064" gradientUnits="userSpaceOnUse" gradientTransform="matrix(1 0 0 1 -317 -23.27)"  x1="0" y1="23.265424265136083" x2="633.999967829422" y2="23.265424265136083">
<stop offset="0%" style="stop-color:#FFA300;stop-opacity: 1"/>
<stop offset="70.17765724179635%" style="stop-color:#A96464;stop-opacity: 1"/>
<stop offset="100%" style="stop-color:#000000;stop-opacity: 1"/>
</linearGradient>
<path style="stroke: rgb(255,0,0); stroke-width: 0; stroke-dasharray: none; stroke-linecap: butt; stroke-dashoffset: 0; stroke-linejoin: miter; stroke-miterlimit: 4; fill: url(#SVGID_1064); fill-rule: nonzero; opacity: 1;" vector-effect="non-scaling-stroke"  transform=" translate(0, 0)" d="M -16.53872 8.54407 C -16.707980000000003 8.54407 -16.88115 8.55606 -17.07217 8.55606 C -19.37219 9.00514 -18.32702 8.85978 -16.53872 8.54407 z M 37.09735 3.6262 C 37.53851 3.5737099999999997 37.94055 3.51845 38.25474 3.46246 C 37.8527 3.52032 37.47503 3.57219 37.09735 3.6262 z M 301.70204 -15.69888 C 298.08498000000003 -16.0206 295.82023000000004 -16.482670000000002 293.94274 -16.75701 C 287.17157000000003 -17.16722 298.13628 -14.91544 299.0731 -14.283930000000002 C 296.33192 -15.091730000000002 293.65038 -15.447550000000001 291.32596 -15.781640000000001 C 289.01248 -16.12135 287.119 -16.559430000000003 285.34279000000004 -17.05705 C 285.37934 -17.126920000000002 291.17717000000005 -16.637340000000002 291.17717000000005 -16.637340000000002 C 285.2953600000001 -17.82888 282.00334000000004 -17.596290000000003 279.87258 -17.64898 C 277.69182 -17.660970000000002 276.39660000000003 -17.64898 273.55088 -18.462760000000003 C 277.98290000000003 -18.311040000000002 283.25115 -18.141040000000004 280.79719 -18.74349 C 280.79719 -18.74349 279.19864 -18.767500000000002 277.56996 -18.80198 C 275.95219 -18.78398 274.33763999999996 -18.76599 274.33763999999996 -18.76599 C 273.60283999999996 -18.9702 278.0304 -18.747989999999998 275.11735 -19.06371 C 273.25207 -18.987840000000002 269.44383999999997 -18.782980000000002 267.7684 -18.62601 L 267.85749999999996 -18.668020000000002 C 267.85749999999996 -18.65603 264.95411999999993 -18.737890000000004 262.04358999999994 -18.719880000000003 C 260.1334499999999 -18.719880000000003 258.24117999999993 -18.721140000000002 257.14860999999996 -18.724620000000005 C 258.51050999999995 -18.751850000000005 258.59968999999995 -18.927850000000007 256.74276 -18.971470000000004 C 256.74276 -18.971470000000004 254.83001999999996 -18.907600000000002 252.91858999999997 -18.783760000000004 C 250.99366999999998 -18.671900000000004 249.08222999999995 -18.567530000000005 249.08222999999995 -18.567530000000005 C 251.42009999999996 -18.765760000000004 249.01873999999995 -18.946750000000005 245.55044999999996 -19.023230000000005 C 235.59429999999995 -18.970740000000006 205.30805999999995 -16.662110000000006 204.86816999999996 -15.112780000000004 C 199.10937999999996 -15.316990000000004 204.36738999999997 -15.428500000000005 211.37651999999997 -16.580490000000005 L 205.28369999999998 -16.592480000000005 C 207.70942999999997 -16.802690000000005 209.75226999999998 -16.844700000000007 212.31333999999998 -17.130050000000004 C 204.31868999999998 -17.252410000000005 197.14288 -15.954410000000005 193.04934999999998 -15.252490000000005 C 189.99267999999998 -15.216500000000005 195.039 -16.503980000000006 186.60195 -15.580210000000005 C 174.7139 -14.288860000000005 189.22258 -14.750560000000004 182.11989 -13.961140000000004 L 176.64131 -14.247850000000003 C 167.7586 -12.692270000000004 160.75332 -12.452790000000004 152.98566 -11.699000000000003 C 151.28134 -11.452780000000004 150.46247 -11.288790000000004 150.07390999999998 -11.155430000000003 C 141.71633999999997 -10.641850000000003 133.31004 -8.454220000000003 127.04668999999998 -7.921700000000003 C 128.41249 -8.243420000000004 123.30388999999998 -7.927700000000003 122.46456999999998 -8.009560000000002 L 111.62295999999998 -6.173980000000002 C 116.40710999999997 -6.981780000000002 115.98705999999997 -7.365520000000002 116.66546999999997 -7.8815500000000025 C 113.21384999999997 -7.401850000000002 111.70826999999997 -6.963410000000002 109.36912999999997 -6.6180600000000025 C 110.73492999999996 -6.9517700000000024 112.11161999999997 -7.277990000000003 110.17320999999997 -7.225500000000002 L 98.91737999999997 -5.021970000000001 C 99.65095999999997 -5.045980000000001 100.99106999999997 -5.197700000000001 102.12281999999996 -5.331690000000002 C 99.22325999999997 -4.939490000000002 93.08299999999996 -3.8339800000000017 88.73365999999996 -3.612130000000002 C 89.01256999999995 -3.822340000000002 90.35272999999995 -4.155700000000002 90.62332999999995 -4.359930000000002 C 94.37827999999995 -4.377930000000002 96.13967999999996 -5.037860000000002 97.77346999999995 -5.581430000000002 C 89.79097999999995 -4.435800000000002 95.70492999999995 -5.417080000000002 91.68454999999994 -5.195230000000002 C 86.04119999999995 -4.417440000000003 84.02519999999994 -3.5571500000000023 85.71742999999995 -3.4121600000000023 C 79.23347999999996 -2.7102400000000024 77.13216999999995 -2.5465200000000023 70.86369999999995 -1.2605200000000023 L 71.76784999999995 -1.9798200000000024 L 65.86167999999995 -0.9981700000000023 L 70.35464999999995 -2.3315300000000025 C 58.60185999999995 -1.1625200000000024 68.78173999999996 -1.0860400000000026 55.80809999999995 0.32298999999999767 L 55.50221999999995 -0.1627200000000023 C 50.676429999999954 0.6855599999999977 49.460729999999955 1.7427099999999975 45.30631999999995 1.6668599999999976 C 40.69855999999995 2.6200099999999975 53.88187999999995 1.2696399999999977 42.68953999999995 2.8823399999999975 C 40.55750999999995 2.8823399999999975 36.22412999999995 3.304549999999997 32.89818999999995 3.6016399999999975 C 29.91203999999995 4.185069999999998 34.35884999999995 3.9473699999999976 37.08787999999995 3.6196399999999973 C 21.600659999999948 5.769669999999998 26.376379999999948 3.1897999999999973 11.87989999999995 5.725399999999997 C 17.286569999999948 5.420679999999997 8.02878999999995 7.235099999999997 20.37147999999995 5.649529999999997 C 14.62238999999995 6.691159999999996 8.384639999999948 6.409319999999997 2.52074999999995 7.730689999999997 L 6.20002999999995 6.591689999999997 C 3.9827199999999503 6.865419999999997 1.6165999999999503 7.409349999999997 0.4618199999999506 7.633319999999998 L 0.6919999999999507 7.089119999999998 C -6.519060000000049 8.832229999999997 -13.74621000000005 8.276749999999998 -17.75182000000005 9.912969999999998 C -15.009330000000048 8.679479999999998 -23.449670000000047 10.602889999999999 -26.65505000000005 10.596889999999998 C -20.63403000000005 9.274919999999998 -8.56323000000005 8.59762 -8.12207000000005 7.691729999999998 C -11.170430000000051 7.773579999999998 -13.61402000000005 8.463529999999999 -16.54895000000005 8.539389999999997 C -14.638810000000051 8.193659999999998 -11.85978000000005 7.655739999999997 -11.19799000000005 7.4117599999999975 C -21.06625000000005 8.031829999999998 -26.13310000000005 9.599409999999997 -31.91043000000005 10.463729999999998 L -21.627940000000052 9.118379999999998 C -22.088320000000053 10.030529999999999 -26.23570000000005 9.778309999999998 -28.863370000000053 10.743459999999999 C -34.234790000000054 10.91982 -38.03463000000005 12.129309999999998 -42.45006000000005 12.205179999999999 C -41.31964000000005 12.111309999999998 -41.27919000000005 11.85597 -40.13147000000005 11.76147 C -51.57392000000005 12.79111 -55.25193000000005 11.727609999999999 -59.794900000000055 12.107199999999999 C -64.27696000000006 12.387929999999999 -72.57110000000006 13.587549999999998 -69.39641000000006 13.66941 C -72.97822000000006 14.21298 -54.299020000000056 12.07927 -60.45663000000006 13.7279 C -63.93838000000006 13.39319 -67.24519000000006 13.80975 -71.52841000000006 14.35334 C -75.80336000000007 14.84503 -81.10558000000006 15.31698 -88.38974000000006 15.331399999999999 C -82.22769000000007 14.523599999999998 -92.27353000000006 14.8517 -86.75340000000006 14.191769999999998 C -93.56242000000006 14.689479999999998 -93.76705000000005 14.893689999999998 -96.70955000000005 15.419269999999997 L -98.86335000000005 15.151539999999997 C -107.55947000000006 16.536759999999997 -100.88955000000006 16.063689999999998 -114.12613000000005 17.285189999999997 C -109.76587000000005 16.734989999999996 -119.58156000000005 17.032969999999995 -116.24979000000005 16.559889999999996 C -119.96819000000005 16.758119999999995 -123.56920000000005 17.338309999999996 -126.21295000000005 17.754519999999996 L -125.73781000000005 17.437189999999998 C -139.24750000000006 18.543329999999997 -136.99494000000004 17.701399999999996 -149.23627000000005 18.986779999999996 L -147.93529000000004 19.139129999999994 C -163.98036000000005 20.886209999999995 -184.73763000000002 21.804429999999993 -201.75736000000003 22.687669999999994 L -195.71587000000002 22.645659999999992 C -197.54075000000003 22.616299999999992 -207.15832000000003 23.469959999999993 -212.5612 23.219239999999992 C -211.49166000000002 23.17337999999999 -209.67000000000002 23.015029999999992 -208.66523 23.015029999999992 C -208.85058 22.756819999999994 -210.95824000000002 22.43096999999999 -215.07221 22.471459999999993 L -216.6233 22.897169999999992 L -218.31417 22.61145999999999 C -224.58973999999998 22.71731999999999 -216.41619 23.16639999999999 -222.71095 23.26088999999999 C -224.57368 22.75269999999999 -231.49362 22.71470999999999 -238.55982 22.61619999999999 L -238.55982 22.61619999999999 L -240.49562 22.80742999999999 L -238.78038 22.96040999999999 C -238.78038 22.96040999999999 -242.74368 22.92978999999999 -243.72927 22.83804999999999 C -244.4224 22.774179999999987 -246.07102 22.886669999999988 -247.9606 22.78942999999999 C -247.99715 22.794799999999988 -248.02152 22.800169999999987 -248.05937 22.803269999999987 C -248.15944 22.791899999999988 -248.2517 22.783419999999985 -248.34342 22.772019999999987 C -249.0173 22.726789999999987 -249.72140000000002 22.652289999999986 -250.41581000000002 22.531189999999988 C -251.41352000000003 22.42343999999999 -252.66006000000002 22.313699999999987 -254.88438000000002 22.195229999999988 L -253.55643000000003 22.739429999999988 C -263.08484000000004 22.189229999999988 -269.62202 21.55179999999999 -275.80263 20.786629999999988 C -282.01338000000004 20.06670999999999 -287.89909 19.224419999999988 -296.04824 17.87968999999999 L -295.33204 17.90369999999999 C -300.92533000000003 16.69419999999999 -303.94415 16.07411999999999 -306.82325000000003 15.87439999999999 C -307.77610000000004 15.40132999999999 -303.65309 16.21410999999999 -305.63191 15.528669999999991 C -316.86467 14.365049999999991 -318.37339000000003 7.838799999999991 -316.09259000000003 8.95511999999999 C -313.58546 9.98475999999999 -311.09754000000004 11.01959999999999 -311.09754000000004 11.01959999999999 C -311.16227000000003 10.70387999999999 -308.91808000000003 10.90173999999999 -310.63331000000005 10.32365999999999 C -307.84339000000006 11.08344999999999 -305.40421000000003 11.71488999999999 -308.64366000000007 10.405509999999989 C -296.35224000000005 14.989319999999989 -280.29118000000005 17.12323999999999 -264.49235000000004 18.14083999999999 C -248.53257000000005 19.13546999999999 -232.44258000000005 19.06498999999999 -216.61563000000004 19.19896999999999 C -214.48360000000005 19.098479999999988 -215.74679000000003 18.88324999999999 -216.57778000000005 18.74326999999999 C -210.69597000000005 19.26284999999999 -211.05886000000004 18.263569999999987 -207.90218000000004 18.089279999999988 L -199.25352000000004 18.720699999999987 C -195.84487000000004 18.300989999999988 -198.59179000000003 18.136639999999986 -198.36416000000003 17.936909999999987 C -182.33388000000002 17.083249999999985 -166.44332000000003 16.988749999999985 -153.57105 15.557419999999986 C -149.32754000000003 15.609909999999987 -154.35458000000003 16.371199999999988 -148.84660000000002 16.112989999999986 C -156.55847000000003 15.675289999999986 -133.02343000000002 14.563399999999985 -137.94538000000003 14.212739999999986 C -132.35715000000002 14.844789999999985 -118.06396000000004 13.107599999999985 -120.11198000000003 14.686439999999987 C -113.49399000000003 14.351729999999987 -114.77451000000003 13.767669999999987 -116.73601000000004 13.732299999999986 C -108.94847000000004 13.364089999999987 -102.92304000000004 13.000369999999986 -96.78276000000004 12.200079999999986 C -94.65073000000004 12.242089999999985 -86.01035000000005 11.644509999999986 -76.99877000000004 11.123949999999986 C -68.01860000000003 10.522519999999986 -58.78894000000004 9.662229999999987 -55.212950000000035 9.936999999999987 C -60.037430000000036 9.656269999999987 -54.99108000000003 9.550799999999986 -50.71484000000004 8.860869999999988 L -54.90581000000004 8.614649999999989 L -44.976630000000036 7.802999999999988 C -42.98698000000004 7.574779999999988 -42.40861000000004 7.550779999999988 -42.384240000000034 7.596669999999988 C -40.70558000000003 7.478809999999988 -42.642660000000035 7.976879999999988 -38.31510000000004 7.755019999999988 C -31.591360000000037 7.082459999999988 -31.430380000000035 6.690889999999987 -27.872930000000036 5.976959999999988 L -28.934160000000034 6.006949999999987 L -24.427740000000036 5.445389999999987 C -21.073590000000035 5.089179999999987 -35.975960000000036 7.350189999999987 -24.928520000000034 6.445039999999987 C -24.839420000000036 6.263309999999987 -18.803050000000034 4.761469999999987 -15.673220000000034 4.861959999999987 C -21.253050000000034 5.452019999999988 -20.366290000000035 5.791119999999987 -18.242540000000034 5.733619999999988 L -10.388290000000033 4.909319999999988 L -13.340430000000033 4.447619999999988 C 9.016689999999965 1.963249999999988 32.393379999999965 -0.580600000000012 56.06369999999996 -3.831020000000011 C 56.11499999999996 -3.1411000000000113 72.86029999999997 -6.058470000000011 71.27646999999996 -4.813670000000011 L 70.30309999999996 -4.789660000000011 C 64.54051999999996 -3.906010000000011 72.43512999999996 -4.263460000000011 77.11081999999996 -5.0058900000000115 C 71.97915999999996 -4.643680000000011 85.45241999999996 -7.156900000000011 73.30710999999997 -5.677820000000011 L 82.38477999999996 -7.379390000000011 C 86.50264999999996 -9.922250000000012 107.31251999999996 -10.600170000000011 121.24734999999995 -12.927910000000011 C 120.27012999999995 -12.72968000000001 120.06816999999995 -12.600190000000012 119.97900999999996 -12.524700000000012 C 126.13144999999996 -13.611840000000011 133.27907999999996 -14.389630000000011 139.25000999999997 -14.945050000000013 C 145.26972999999998 -15.430760000000012 150.05897 -15.746840000000013 151.45611999999997 -16.05019000000001 L 152.83664999999996 -15.66399000000001 C 163.39934999999997 -17.60542000000001 164.63940999999997 -17.90345000000001 177.83751999999996 -18.88578000000001 C 177.70089999999996 -18.78529000000001 176.23065999999994 -18.50557000000001 178.37096999999994 -18.58106000000001 C 181.39105999999995 -19.23505000000001 184.42215999999993 -19.90242000000001 193.49142999999995 -20.49248000000001 L 193.17206999999996 -20.304770000000012 C 193.17206999999996 -20.304770000000012 196.69677999999996 -20.596500000000013 200.23444999999995 -20.883790000000012 C 203.77971999999994 -21.136010000000013 207.30900999999994 -21.397370000000013 207.30900999999994 -21.397370000000013 C 207.56357999999994 -19.883020000000013 249.39750999999995 -22.970940000000013 254.10403999999994 -23.204430000000013 C 254.13221999999993 -23.128560000000014 254.42339999999993 -23.06407000000001 255.21011999999993 -22.994220000000013 C 257.9878499999999 -23.404430000000012 262.01913999999994 -23.280930000000012 266.08696999999995 -23.070720000000012 C 270.16958999999997 -22.789990000000014 274.27527 -22.34479000000001 277.34279999999995 -22.286930000000012 C 281.40101999999996 -22.24107000000001 279.74546 -22.60865000000001 278.04680999999994 -23.01286000000001 C 285.74648999999994 -21.89122000000001 300.45008999999993 -21.92572000000001 303.2131299999999 -20.86722000000001 C 308.96352999999993 -19.80309000000001 304.9174499999999 -19.92006000000001 306.2332199999999 -19.30564000000001 C 314.6235499999999 -17.71550000000001 306.1197299999999 -21.08871000000001 316.6337199999999 -17.77944000000001 C 315.2692199999999 -18.05565000000001 312.85567999999995 -18.597730000000013 313.6706699999999 -18.283150000000013 C 314.6966499999999 -17.985430000000015 315.8186999999999 -17.541350000000012 316.94920999999994 -17.043660000000013 C 318.03479999999996 -16.482100000000013 301.3635499999999 -15.207880000000014 301.70206999999994 -15.698910000000014 z M -252.17912 22.11014 C -253.40831 21.99041 -254.41823000000002 21.84241 -255.10305000000002 21.65344 C -257.25685000000004 21.98277 -254.52663 22.12375 -251.69180000000003 22.24887 C -251.86618000000004 22.20238 -252.03553000000002 22.155 -252.17912000000004 22.11043 z M -41.58726 7.85895 L -43.2076 7.87094 C -44.11045 8.09979 -45.04724 8.31465 -41.58726 7.85895 z M 292.59055 -17.00662 C 289.87373 -17.49831 289.7493 -17.99425 287.64424 -17.63269 C 288.70547000000005 -17.19848 290.88750000000005 -17.10049 292.59055 -17.00662 z M 301.74939 -14.49896 C 301.74939 -14.49896 303.72692 -14.158900000000001 301.74939 -14.49896 z M 243.12595 -17.80779 L 244.23591 -17.82579 L 242.08787999999998 -18.39336 z M 189.14292 -14.0311 C 191.36023 -14.195450000000001 193.91607 -14.53481 196.1322 -14.66853 C 191.36023 -14.20683 188.29590000000002 -14.7324 189.14292 -14.0311 z" stroke-linecap="round" />
</g>
</svg>