<svg xmlns="http://www.w3.org/2000/svg" viewBox="0 0 221.36 204.68" version="1.0"><defs><linearGradient id="b" y2="589.71" gradientUnits="userSpaceOnUse" x2="404.02" gradientTransform="translate(-103.04 -290.92)" y1="366.2" x1="404.02"><stop style="stop-color:#fff;stop-opacity:.375" offset="0"/><stop style="stop-color:#fff;stop-opacity:0" offset="1"/></linearGradient><linearGradient id="d" y2="549.44" gradientUnits="userSpaceOnUse" x2="389.92" y1="452.33" x1="369.72"><stop style="stop-color:#fff" offset="0"/><stop style="stop-color:#fff;stop-opacity:0" offset="1"/></linearGradient><linearGradient id="e" y2="670.52" gradientUnits="userSpaceOnUse" x2="-83.844" gradientTransform="translate(533.36 20.203)" y1="535.16" x1="-90.914"><stop style="stop-color:#96beff" offset="0"/><stop style="stop-color:#09719f" offset="1"/></linearGradient><linearGradient id="f" y2="632.14" gradientUnits="userSpaceOnUse" x2="-111.85" y1="490.72" x1="-139.4"><stop style="stop-color:#fff" offset="0"/><stop style="stop-color:#fff;stop-opacity:0" offset="1"/></linearGradient><radialGradient id="a" gradientUnits="userSpaceOnUse" cy="404.36" cx="377.14" gradientTransform="matrix(0 -1.0008 1.0527 0 -59.965 792.66)" r="216.8"><stop style="stop-color:#fffdbc" offset="0"/><stop style="stop-color:#fcff00" offset="1"/></radialGradient><filter id="c"><feGaussianBlur stdDeviation="2.571"/></filter></defs><path style="fill-rule:evenodd;fill:#fb0" d="M527.12 565.41c-.6.64-78.27-36.44-78.97-35.94-.71.51 9.99 85.91 9.2 86.27-.79.37-58.36-63.62-59.2-63.42s-23.64 83.2-24.51 83.23-29.57-81.11-30.43-81.25c-.85-.14-53.68 67.81-54.49 67.51s3.72-86.25 2.98-86.71c-.74-.45-75.54 42.11-76.18 41.52-.63-.59 36.45-78.26 35.94-78.97-.51-.7-85.91 10-86.27 9.21s63.62-58.36 63.42-59.21c-.2-.84-83.19-23.64-83.23-24.51-.03-.86 81.12-29.57 81.25-30.42.14-.86-67.81-53.68-67.51-54.5.31-.81 86.26 3.73 86.71 2.99.46-.74-42.11-75.55-41.52-76.18.59-.64 78.27 36.44 78.97 35.93.7-.5-9.99-85.91-9.2-86.27.78-.36 58.35 63.63 59.2 63.43.84-.2 23.64-83.2 24.51-83.23s29.57 81.11 30.43 81.25c.85.14 53.68-67.81 54.49-67.51s-3.72 86.25-2.98 86.71c.73.45 75.54-42.11 76.18-41.52.63.59-36.45 78.26-35.94 78.97.51.7 85.91-10 86.27-9.21s-63.62 58.36-63.42 59.2c.2.85 83.19 23.65 83.22 24.51.04.87-81.11 29.57-81.25 30.43-.13.86 67.82 53.68 67.52 54.49-.31.82-86.26-3.72-86.71-2.98-.46.74 42.11 75.55 41.52 76.18z" transform="translate(-67.527 -90.518) scale(.46448)"/><path style="fill-rule:evenodd;fill:url(#a)" transform="translate(-67.527 -90.518) scale(.46448)" d="M515.48 554.59c-.49.52-66.75-25.54-67.33-25.12s3.25 71.52 2.6 71.82-51.9-49.13-52.6-48.97c-.7.17-24.36 67.32-25.08 67.35s-29.15-65.26-29.86-65.37c-.71-.12-48.27 52.87-48.94 52.62s-1.96-71.44-2.57-71.82-64.83 30.38-65.35 29.89c-.53-.49 25.53-66.75 25.11-67.34-.42-.58-71.52 3.26-71.82 2.6-.3-.65 49.14-51.9 48.97-52.6-.16-.69-67.32-24.36-67.35-25.08-.02-.71 65.26-29.14 65.37-29.85.12-.71-52.87-48.27-52.62-48.95.25-.67 71.44-1.95 71.82-2.56s-30.37-64.83-29.88-65.36c.49-.52 66.75 25.53 67.33 25.11s-3.25-71.52-2.6-71.81c.65-.3 51.9 49.13 52.6 48.97.7-.17 24.36-67.33 25.08-67.35.72-.03 29.15 65.25 29.86 65.37.7.11 48.27-52.87 48.94-52.62s1.95 71.44 2.57 71.82c.61.37 64.83-30.38 65.35-29.89.53.49-25.53 66.75-25.11 67.34.42.58 71.52-3.26 71.82-2.61.3.66-49.14 51.9-48.97 52.6.16.7 67.32 24.37 67.34 25.08.03.72-65.25 29.15-65.37 29.86-.11.71 52.88 48.27 52.63 48.94-.25.68-71.45 1.96-71.82 2.57-.38.61 30.37 64.83 29.88 65.36z"/><path style="fill-rule:evenodd;fill:url(#b)" d="M264.65 75.639a16.288 16.288 0 0 0-16.06 10.687c-.39 1.074-.97 2.612-1.34 3.625a708.867 708.867 0 0 1-2.91 7.75c-.43 1.104-.69 1.78-.94 2.379-.11.27-.06.17-.44.93-.53 1.08.02.07-.43.78-.58.92.03.09-.69.91-1.02 1.17-.96 1.14-1.22 1.47-.43.17-1.04.42-2.44.75-1.39.33-2.01.4-2.47.44-.38-.18-.32-.19-1.78-.78-1.02-.42-.13.04-1.03-.5-.78-.48.08.09-.72-.5-.59-.45-.43-.34-.81-.66-.53-.45-1.06-.92-1.91-1.69a657.52 657.52 0 0 1-6.09-5.623c-.53-.493-1.72-1.694-2.81-2.718a16.298 16.298 0 0 0-17.95-2.948 16.3 16.3 0 0 0-9.49 15.509c.05 1.12.11 2.79.16 3.94.13 3.44.26 6.29.31 8.28.02 1.01.04 1.66.03 2.5 0 .79.01.48-.03 1.06-.05.81.04-.05-.13.91-.18 1.09.08.04-.28 1.09-.49 1.47-.44 1.41-.56 1.81-.33.32-.79.78-1.97 1.63-1.15.83-1.72 1.13-2.12 1.34-.44-.01-.36-.04-1.91-.03-1.18.01-.29.07-1.16-.06-.81-.12.31.09-.87-.22-.72-.18-.53-.13-1-.28-.68-.22-1.35-.46-2.41-.84-1.94-.7-4.57-1.68-7.75-2.88-.9-.34-2.46-.92-3.65-1.37-6.19-2.35-13.18-.72-17.69 4.12s-5.65 11.93-2.88 17.94c.52 1.12 1.24 2.62 1.66 3.53 1.43 3.09 2.58 5.66 3.41 7.53.48 1.1.79 1.76 1.03 2.34.14.36.08.21.34.97.41 1.21.11.1.28.88.28 1.21.09.03.16 1.09.1 1.53.11 1.46.16 1.88-.19.42-.46 1.04-1.22 2.28-.76 1.22-1.14 1.74-1.44 2.09-.39.15-.34.08-1.78.69-.97.41.13.05-1.06.34-.97.24-.14.09-.88.19-.7.1-.5.05-1.06.09-.79.07-1.49.11-2.53.16-2.01.1-4.86.2-8.28.31-1.09.04-2.74.09-3.91.13-6.62.2-12.47 4.39-14.78 10.6s-.63 13.2 4.25 17.68c.97.89 2.2 2.01 2.87 2.62 2.53 2.34 4.62 4.26 6.07 5.63.66.64 1.19 1.15 1.84 1.81.5.51.3.28.72.75.87 1 .06.03.53.69.49.69.07-.06.59 1 .71 1.43.71 1.35.91 1.72-.01.46-.05 1.09-.28 2.5-.23 1.4-.39 1.99-.53 2.44-.3.27-.29.23-1.41 1.37-.77.78.07.05-.84.72-.66.49.33-.14-.75.5-.55.32-.33.19-.94.5-.74.38-1.37.66-2.28 1.09-1.9.9-4.46 2.08-7.53 3.47-.86.39-2.37 1.07-3.53 1.6-6.03 2.72-9.8 8.82-9.56 15.43.24 6.6 4.45 12.41 10.65 14.69 1.19.44 2.75 1.01 3.66 1.34 3.14 1.16 5.73 2.14 7.71 2.91 1.12.43 1.8.69 2.38.94.52.22.35.13.97.44 1.09.54.07-.01.78.43.72.46-.03-.1.87.69 1.17 1.02 1.15.96 1.47 1.22.17.43.42 1.04.75 2.44.21.88.22 1.07.35 2.53.4 4.56 2.71 8.75 6.35 11.53 3.65 2.77 8.29 3.89 12.8 3.06 73.59 1.12 163.07-27.82 230.75-70.62 4.67-1.78 8.27-5.61 9.75-10.38-.18.6-.44 1.49 1-2.06.42-1.02-.04-.13.5-1.03.48-.79-.09.06.5-.72.3-.39.05-.06.69-.81.62-.73 1.05-1.21 1.66-1.88 1.42-1.56 3.33-3.64 5.62-6.09.65-.7 1.82-1.92 2.69-2.85 4.54-4.82 5.7-11.92 2.95-17.94a16.286 16.286 0 0 0-15.51-9.49c-1.43.06-3.1.15-3.88.18-3.35.14-6.16.24-8.28.29-1.02.02-1.71.03-2.53.03-.81-.01-.44.01-1.03-.03-.83-.06.07.03-.88-.13-1.1-.19-.08.07-1.12-.28-1.48-.5-1.41-.44-1.81-.56-.32-.33-.78-.8-1.63-1.97-.84-1.17-1.14-1.73-1.34-2.13.01-.43.04-.35.03-1.9-.01-1.17-.07-.28.06-1.16.12-.77-.13.51.22-.84.18-.71.12-.52.28-1 .25-.76.49-1.46.84-2.44.7-1.93 1.68-4.57 2.88-7.75.29-.78.89-2.33 1.37-3.63 2.36-6.19.73-13.2-4.12-17.71a16.3 16.3 0 0 0-17.97-2.85c-1.11.52-2.61 1.23-3.53 1.66-3.04 1.4-5.59 2.54-7.53 3.4-1.09.49-1.75.8-2.35 1.04-.34.13-.19.08-.96.34-1.4.47-.12.12-.85.28-1.1.25-.04.09-1.12.16-1.53.1-1.46.11-1.88.15-.42-.18-1.04-.45-2.28-1.22-1.22-.75-1.71-1.14-2.06-1.43-.15-.4-.11-.33-.72-1.78-.41-.98-.06.07-.34-1.1-.24-.97-.09-.16-.19-.87s-.05-.49-.1-1.03c-.06-.84-.1-1.52-.15-2.54-.1-2.03-.2-4.86-.31-8.28-.04-1.09-.09-2.75-.13-3.9-.2-6.626-4.39-12.47-10.6-14.782s-13.2-.633-17.68 4.248c-.9.975-2 2.197-2.59 2.844-2.34 2.525-4.25 4.619-5.63 6.062-.64.669-1.15 1.195-1.81 1.848-.51.5-.28.3-.75.71-1 .87-.03.07-.69.54-.69.48.06.07-1 .59-1.43.7-1.35.7-1.72.91-.46-.01-1.09-.06-2.5-.29-1.4-.22-1.99-.39-2.44-.53-.27-.3-.23-.28-1.37-1.4-.78-.77-.04.08-.72-.85-.48-.65.15.35-.5-.746-.32-.543-.18-.316-.5-.938-.44-.866-.74-1.444-1.12-2.25-.87-1.827-2.03-4.447-3.44-7.562-.39-.847-1.07-2.358-1.6-3.532a16.283 16.283 0 0 0-14.06-9.593z" transform="translate(-22.61 -6.93) scale(.46448)"/><path style="fill-rule:evenodd;filter:url(#c);fill:url(#radialGradient2772)" d="M-342.86 443.79a128.57 128.57 0 1 1-257.14 0 128.57 128.57 0 1 1 257.14 0z" transform="matrix(.39223 0 0 .39223 287.25 -71.725)"/><path style="fill-rule:evenodd;fill:url(#d)" d="M372.06 441.56c-39.28 0-73.45 27.64-82.18 64.66-2.23 9.41-.4 19.32 5.02 27.32a34.527 34.527 0 0 0 23.51 14.8c8.41 1.25 17.93 1.42 30.75.57 23.02-1.54 48.51-7.69 75.81-16.19 10.16-3.17 18.3-10.83 22.06-20.79s2.72-21.09-2.81-30.18c-14.72-24.16-42.05-40.19-72.16-40.19z" transform="translate(-74.223 -147.69) scale(.46448)"/><g><path style="fill-rule:evenodd;fill:url(#e)" d="M417.2 525.08c-32.47 0-61.35 15.49-79.62 39.5-3.99-.75-8.11-1.13-12.31-1.13-36.81 0-66.66 29.86-66.66 66.66s29.85 66.69 66.66 66.69c6.75 0 13.26-1.01 19.4-2.88 18.23 19.18 44.01 31.16 72.53 31.16 15.97 0 31.05-3.75 44.44-10.41 13.39 6.66 28.48 10.41 44.44 10.41 32.87 0 62.05-15.9 80.28-40.41 29.9-.25 54.06-24.61 54.06-54.56 0-27.61-20.53-50.43-47.15-54.03-17.15-30.44-49.78-51-87.19-51-15.97 0-31.05 3.74-44.44 10.4-13.39-6.66-28.47-10.4-44.44-10.4z" transform="translate(-76.1 -142.995) scale(.46448)"/><path style="fill-rule:evenodd;fill:url(#f)" d="M-116.16 516.81c-28.49 0-54.19 13.85-70.12 34.78-2.77 3.65-7.19 5.37-11.69 4.53-3.26-.6-6.64-.93-10.12-.93-29.08 0-54.72 25.64-54.72 54.72 0 3.83.29 5.13.19 3.53.87 13.73 10.87 25.15 24.37 27.81 32.07 6.34 75.55 3.48 127.22-9.34 41.694-10.35 86.569-26.18 131.12-44 9.988-4.01 17.103-13 18.697-23.64s-2.571-21.33-10.943-28.08c-14.971-12.06-34.361-19.38-55.125-19.38-13.952 0-27.419 3.34-39.125 9.16a11.83 11.83 0 0 1-10.625 0c-11.707-5.82-25.169-9.16-39.129-9.16z" transform="translate(170.697 -135.488) scale(.46448)"/></g></svg>